<svg xmlns="http://www.w3.org/2000/svg" viewBox="0 0 512 512" width="512" height="512">
  <defs>
    <linearGradient id="bg" x1="0" y1="0" x2="1" y2="1">
      <stop offset="0%" stop-color="#0f172a"/>
      <stop offset="100%" stop-color="#1e293b"/>
    </linearGradient>
    <linearGradient id="teal" x1="0" y1="0" x2="1" y2="1">
      <stop offset="0%" stop-color="#14b8a6"/>
      <stop offset="100%" stop-color="#38bdf8"/>
    </linearGradient>
    <linearGradient id="warm" x1="0" y1="1" x2="1" y2="0">
      <stop offset="0%" stop-color="#f59e0b"/>
      <stop offset="100%" stop-color="#ef4444"/>
    </linearGradient>
  </defs>
  <rect width="512" height="512" rx="96" fill="url(#bg)"/>

  <g transform="translate(256,180)">
    <g transform="translate(-96,0)">
      <circle cx="0" cy="0" r="48" fill="url(#teal)" opacity="0.9"/>
      <circle cx="0" cy="0" r="24" fill="#0f172a"/>
      <circle cx="0" cy="0" r="10" fill="url(#teal)"/>
    </g>
    <g transform="translate(0,0)">
      <circle cx="0" cy="0" r="48" fill="url(#teal)" opacity="0.7"/>
      <circle cx="0" cy="0" r="24" fill="#0f172a"/>
      <circle cx="0" cy="0" r="10" fill="url(#teal)"/>
    </g>
    <g transform="translate(96,0)">
      <circle cx="0" cy="0" r="48" fill="url(#teal)" opacity="0.5"/>
      <circle cx="0" cy="0" r="24" fill="#0f172a"/>
      <circle cx="0" cy="0" r="10" fill="url(#teal)"/>
    </g>
  </g>

  <g transform="translate(256,180)">
    <line x1="-208" y1="80" x2="-80" y2="80" stroke="#14b8a6" stroke-width="3" opacity="0.4"/>
    <line x1="-208" y1="80" x2="-80" y2="8" stroke="#14b8a6" stroke-width="3" opacity="0.4"/>

    <line x1="80" y1="80" x2="208" y2="80" stroke="#38bdf8" stroke-width="3" opacity="0.4"/>
    <line x1="80" y1="80" x2="208" y2="8" stroke="#38bdf8" stroke-width="3" opacity="0.4"/>

    <line x1="-64" y1="80" x2="64" y2="80" stroke="#f59e0b" stroke-width="3" opacity="0.4"/>
    <line x1="-64" y1="80" x2="0" y2="16" stroke="#f59e0b" stroke-width="3" opacity="0.4"/>
    <line x1="64" y1="80" x2="0" y2="16" stroke="#ef4444" stroke-width="3" opacity="0.4"/>
  </g>

  <text x="256" y="410" text-anchor="middle" font-family="system-ui,sans-serif" font-size="52" font-weight="800" fill="#e2e8f0" letter-spacing="2">OKF</text>
  <text x="256" y="440" text-anchor="middle" font-family="system-ui,sans-serif" font-size="20" fill="#64748b" letter-spacing="4">MD MASTER</text>
</svg>
