<svg xmlns="http://www.w3.org/2000/svg" viewBox="0 0 1200 630" width="1200" height="630">
  <defs>
    <linearGradient id="bg" x1="0" y1="0" x2="1" y2="1">
      <stop offset="0%" stop-color="#0f172a"/>
      <stop offset="100%" stop-color="#020617"/>
    </linearGradient>
    <linearGradient id="accent" x1="0" y1="0" x2="1" y2="1">
      <stop offset="0%" stop-color="#14b8a6"/>
      <stop offset="100%" stop-color="#38bdf8"/>
    </linearGradient>
  </defs>
  <rect width="1200" height="630" fill="url(#bg)"/>

  <g transform="translate(300,315)">
    <circle cx="-120" cy="0" r="80" fill="url(#accent)" opacity="0.9"/>
    <circle cx="-120" cy="0" r="40" fill="#0f172a"/>
    <circle cx="-120" cy="0" r="16" fill="url(#accent)"/>
    <circle cx="0" cy="0" r="80" fill="url(#accent)" opacity="0.7"/>
    <circle cx="0" cy="0" r="40" fill="#0f172a"/>
    <circle cx="0" cy="0" r="16" fill="url(#accent)"/>
    <circle cx="120" cy="0" r="80" fill="url(#accent)" opacity="0.5"/>
    <circle cx="120" cy="0" r="40" fill="#0f172a"/>
    <circle cx="120" cy="0" r="16" fill="url(#accent)"/>
  </g>

  <g transform="translate(600,315)">
    <line x1="-300" y1="120" x2="-140" y2="120" stroke="#14b8a6" stroke-width="4" opacity="0.3"/>
    <line x1="-300" y1="120" x2="-140" y2="20" stroke="#14b8a6" stroke-width="4" opacity="0.3"/>
    <line x1="140" y1="120" x2="300" y2="120" stroke="#38bdf8" stroke-width="4" opacity="0.3"/>
    <line x1="140" y1="120" x2="300" y2="20" stroke="#38bdf8" stroke-width="4" opacity="0.3"/>
    <line x1="-100" y1="120" x2="100" y2="120" stroke="#f59e0b" stroke-width="4" opacity="0.3"/>
    <line x1="-100" y1="120" x2="0" y2="40" stroke="#f59e0b" stroke-width="4" opacity="0.3"/>
    <line x1="100" y1="120" x2="0" y2="40" stroke="#ef4444" stroke-width="4" opacity="0.3"/>
  </g>

  <text x="600" y="510" text-anchor="middle" font-family="system-ui,sans-serif" font-size="72" font-weight="800" fill="#e2e8f0" letter-spacing="4">OKF MD MASTER</text>
  <text x="600" y="560" text-anchor="middle" font-family="system-ui,sans-serif" font-size="24" fill="#64748b" letter-spacing="6">OPEN KNOWLEDGE FORMAT ECOSYSTEM</text>
</svg>
